<svg width="605" height="728" viewBox="0 0 605 728" fill="none" xmlns="http://www.w3.org/2000/svg">
<g clip-path="url(#clip0_2_3)">
<path d="M229.237 410.739L222 453.049C222 453.049 223.67 492.576 237.031 491.463C250.393 490.349 237.031 450.266 237.031 450.266L249.836 415.193L229.237 410.739Z" fill="#FFB9B9"/>
<path d="M254.846 347.83L249.836 410.739L225.897 407.398L234.248 355.067V309.973L243.712 300.509L254.846 347.83Z" fill="#E6E6E6"/>
<path d="M227.01 415.192L251.506 419.646L252.62 407.955L224.784 406.842L227.01 415.192Z" fill="#3F3D56"/>
<path d="M265.702 242.331L268.208 261.538L270.713 280.745L304.673 275.735L301.332 242.331H265.702Z" fill="#FFB9B9"/>
<path d="M352.272 401.275L344.478 431.337L337.797 441.915C337.797 441.915 342.808 461.957 347.818 461.4C352.829 460.843 356.169 441.915 356.169 441.915L375.098 401.275H352.272Z" fill="#FFB9B9"/>
<path d="M259.3 424.1C259.3 424.1 255.403 442.958 246.496 451.278C237.588 459.598 267.094 680.351 267.094 680.351C267.094 680.351 287.693 687.007 297.714 688.116C307.735 689.226 301.611 571.084 301.611 571.084V538.914C301.611 538.914 321.653 665.93 321.653 667.594V675.914L331.674 686.453C331.674 686.453 348.932 682.015 351.715 686.453C354.499 690.89 361.736 691.444 363.963 693.108C366.19 694.772 351.159 462.371 351.159 462.371L335.571 437.966L259.3 424.1Z" fill="#2F2E41"/>
<path d="M282.682 253.187C297.441 253.187 309.405 241.223 309.405 226.465C309.405 211.707 297.441 199.743 282.682 199.743C267.924 199.743 255.96 211.707 255.96 226.465C255.96 241.223 267.924 253.187 282.682 253.187Z" fill="#FFB9B9"/>
<path d="M333.344 317.21C333.344 318.324 349.489 363.974 348.375 365.645C347.262 367.315 349.489 396.264 349.489 396.264H378.438C379.192 394.118 379.568 391.858 379.551 389.583C379.551 385.686 374.541 342.819 368.974 316.653C363.406 290.488 346.148 278.797 346.148 278.797L342.251 281.023C342.251 281.023 333.344 316.097 333.344 317.21Z" fill="#E6E6E6"/>
<path d="M349.488 405.172L373.984 404.615L382.892 396.264L347.818 394.037L349.488 405.172Z" fill="#3F3D56"/>
<path d="M282.682 441.915L287.693 461.4C287.693 461.4 307.735 457.503 315.529 454.719C323.323 451.936 345.035 449.152 345.035 449.152L337.797 435.791L282.682 441.915Z" fill="#3F3D56"/>
<path d="M246.496 438.018L243.712 455.276L268.208 460.287L274.332 441.915L246.496 438.018Z" fill="#3F3D56"/>
<path d="M268.208 271.559C268.208 271.559 265.981 276.57 251.506 281.58C237.031 286.591 234.248 309.973 234.248 309.973C234.248 309.973 251.506 356.737 250.949 360.077C250.393 363.418 253.176 371.212 253.176 371.212L250.393 418.533L244.825 439.688C294.373 458.06 341.694 436.905 341.694 436.905C341.694 436.905 339.467 416.306 340.581 410.739C341.694 405.172 343.365 353.953 343.365 353.953L346.148 278.796L313.302 267.105L307.735 262.652C307.735 262.652 306.621 249.847 304.951 248.734C303.281 247.62 298.827 253.187 292.703 259.868C286.579 266.549 273.775 265.435 269.878 263.208C265.981 260.982 264.311 262.095 264.311 262.095C261.527 264.322 268.208 271.559 268.208 271.559Z" fill="#E6E6E6"/>
<path d="M302.492 215.213C299.184 206.034 285.522 213.185 272.821 215.64C260.121 218.094 260.692 242.332 260.692 242.332C260.692 242.332 252.898 229.461 252.898 215.052C252.898 200.644 259.747 204.06 260.708 201.925C261.668 199.79 264.23 201.285 264.23 201.285C264.23 201.285 265.617 195.948 269.459 196.695C270.508 196.938 271.604 196.865 272.611 196.485C273.618 196.105 274.49 195.435 275.116 194.56C293.687 184.635 290.806 193.813 297.85 195.094C304.894 196.375 303.827 198.083 306.068 202.138C307.858 205.785 309.357 209.568 310.551 213.452C310.408 216.072 310.66 218.698 311.298 221.243C312.365 225.726 309.59 229.888 309.59 229.888C306.661 225.29 304.278 220.364 302.492 215.213V215.213Z" fill="#2F2E41"/>
<path d="M260.414 235.651C261.797 235.651 262.919 234.155 262.919 232.311C262.919 230.466 261.797 228.97 260.414 228.97C259.03 228.97 257.908 230.466 257.908 232.311C257.908 234.155 259.03 235.651 260.414 235.651Z" fill="#FFB9B9"/>
<path d="M294.186 680.31L297.123 703.802C297.123 703.802 300.059 709.675 297.123 712.611C294.186 715.548 297.123 723.379 297.123 723.379C297.123 723.379 290.271 729.251 274.61 728.273C258.948 727.294 262.864 714.569 266.779 708.696C270.694 702.823 270.694 691.077 270.694 691.077L274.61 679.331L294.186 680.31Z" fill="#2F2E41"/>
<path d="M331.303 680.31L328.367 703.802C328.367 703.802 325.43 709.675 328.367 712.611C331.303 715.548 328.367 723.379 328.367 723.379C328.367 723.379 335.218 729.251 350.88 728.273C366.541 727.294 362.626 714.569 358.71 708.696C354.795 702.823 354.795 691.077 354.795 691.077L350.88 679.331L331.303 680.31Z" fill="#2F2E41"/>
</g>
<defs>
<clipPath id="clip0_2_3">
<rect width="604.682" height="727.778" fill="white"/>
</clipPath>
</defs>
</svg>
